<svg xmlns="http://www.w3.org/2000/svg" width="19" height="21" viewBox="0 0 19 21">
  <metadata><?xpacket begin="﻿" id="W5M0MpCehiHzreSzNTczkc9d"?>
<x:xmpmeta xmlns:x="adobe:ns:meta/" x:xmptk="Adobe XMP Core 5.6-c138 79.159824, 2016/09/14-01:09:01        ">
   <rdf:RDF xmlns:rdf="http://www.w3.org/1999/02/22-rdf-syntax-ns#">
      <rdf:Description rdf:about=""/>
   </rdf:RDF>
</x:xmpmeta>
                                                                                                    
                                                                                                    
                                                                                                    
                                                                                                    
                                                                                                    
                                                                                                    
                                                                                                    
                                                                                                    
                                                                                                    
                                                                                                    
                                                                                                    
                                                                                                    
                                                                                                    
                                                                                                    
                                                                                                    
                                                                                                    
                                                                                                    
                                                                                                    
                                                                                                    
                                                                                                    
                           
<?xpacket end="w"?></metadata>
<defs>
    <style>
      .cls-1 {
        fill: #8b8b8b;
        fill-rule: evenodd;
      }
    </style>
  </defs>
  <path class="cls-1" d="M338.415,120.826H349.68a2.356,2.356,0,0,0,2.32-2.382v-4.92a0.057,0.057,0,0,0,0-.026c0-.009,0-0.022,0-0.03s0-.018,0-0.026,0-.018-0.008-0.031,0-.017-0.008-0.025,0-.018-0.009-0.026-0.008-.018-0.013-0.031a0.1,0.1,0,0,0-.012-0.021l-0.013-.026c0-.009-0.008-0.013-0.012-0.022a0.233,0.233,0,0,1-.017-0.026,0.078,0.078,0,0,0-.017-0.021c0-.009-0.013-0.013-0.017-0.022a0.173,0.173,0,0,0-.017-0.021,0.053,0.053,0,0,0-.016-0.017l-0.021-.022c-0.009,0-.013-0.013-0.021-0.017s-0.017-.013-0.026-0.018l-0.021-.013a0.085,0.085,0,0,1-.025-0.017l-0.025-.013-0.025-.013-0.025-.013c-0.009,0-.017,0-0.026-0.008a0.065,0.065,0,0,0-.029-0.009,0.2,0.2,0,0,1-.021,0,0.08,0.08,0,0,0-.034,0,0.085,0.085,0,0,0-.017,0l-14.278-2.024v-2.046a0.279,0.279,0,0,0,0-.06,0.037,0.037,0,0,0,0-.018c0-.013,0-0.026,0-0.038s0-.022-0.009-0.035,0-.013,0-0.022l-0.012-.038s0-.013,0-0.018a0.131,0.131,0,0,0-.016-0.034,0.1,0.1,0,0,1-.009-0.018,0.074,0.074,0,0,0-.017-0.025c0-.009-0.008-0.013-0.012-0.022a0.253,0.253,0,0,1-.013-0.022c0-.008-0.013-0.017-0.017-0.026l-0.012-.012c-0.009-.009-0.017-0.018-0.026-0.026l-0.012-.013a0.2,0.2,0,0,0-.03-0.026l-0.016-.013c-0.009-.009-0.017-0.013-0.026-0.022s-0.025-.017-0.033-0.021a0.1,0.1,0,0,0-.013-0.009c-0.017-.009-0.038-0.017-0.054-0.026l-3.1-1.338a0.562,0.562,0,0,0-.744.311,0.588,0.588,0,0,0,.3.764l2.748,1.191v12.767a2.364,2.364,0,0,0,2.021,2.361,2.4,2.4,0,0,0-.328,1.208,2.291,2.291,0,1,0,4.58,0,2.356,2.356,0,0,0-.315-1.187h5.1a2.367,2.367,0,0,0-.315,1.187,2.291,2.291,0,1,0,2.29-2.352H338.415a1.2,1.2,0,0,1-1.185-1.217V120.5A2.3,2.3,0,0,0,338.415,120.826Zm2.824,4.817a1.156,1.156,0,1,1-1.156-1.187A1.174,1.174,0,0,1,341.239,125.643Zm9.051,0a1.156,1.156,0,1,1-1.156-1.187A1.174,1.174,0,0,1,350.29,125.643Zm-0.61-5.982H338.415a1.2,1.2,0,0,1-1.185-1.217v-6.3l13.635,1.929v4.364A1.2,1.2,0,0,1,349.68,119.661Z" transform="translate(-333 -107)"/>
</svg>
