<svg xmlns="http://www.w3.org/2000/svg" width="80" height="80" viewBox="0 0 80 80">
  <metadata><?xpacket begin="﻿" id="W5M0MpCehiHzreSzNTczkc9d"?>
<x:xmpmeta xmlns:x="adobe:ns:meta/" x:xmptk="Adobe XMP Core 5.6-c138 79.159824, 2016/09/14-01:09:01        ">
   <rdf:RDF xmlns:rdf="http://www.w3.org/1999/02/22-rdf-syntax-ns#">
      <rdf:Description rdf:about=""/>
   </rdf:RDF>
</x:xmpmeta>
                                                                                                    
                                                                                                    
                                                                                                    
                                                                                                    
                                                                                                    
                                                                                                    
                                                                                                    
                                                                                                    
                                                                                                    
                                                                                                    
                                                                                                    
                                                                                                    
                                                                                                    
                                                                                                    
                                                                                                    
                                                                                                    
                                                                                                    
                                                                                                    
                                                                                                    
                                                                                                    
                           
<?xpacket end="w"?></metadata>
<defs>
    <style>
      .cls-1 {
        fill: red;
        fill-rule: evenodd;
      }
    </style>
  </defs>
  <path class="cls-1" d="M1268.1,2703v-21.18L1249.28,2663H1201v80h67.1v-15.49H1281V2703h-12.9Zm-18.07-35.6,13.66,13.66h-13.66V2667.4Zm15.49,73.02h-61.94v-74.84h43.87v18.06h18.07V2703h-2.58v2.58h-0.87l-4.57-3.43-3.6-7.2v-8.73h-7.32l-3,7.5v4.12l0.93,3.87h-13.6l-1.55,7.77,1.69,6.79-4.24,3.6v-2.68h-20.65v20.65h20.65v-14.59l4.94-4.19,0.26,1.03,3.03,6.13h24.56l1.29-1.29h2.05v2.58h2.58v12.91Zm-19.36-42.74v-3.47l2.16-5.4h3v6.75l4.15,8.29,5.75,4.31h1.72v14.19h-3.12l-1.29,1.29h-21.89l-2.17-4.32-2.47-9.9,1.02-5.13h14.79Zm-32.95,35h2.46l8.56-7.25v9.83h-15.49v-15.49h15.49v2.28l-9.51,8.05h-0.13l-2.19-3.3-2.15,1.43Zm65.21-7.75h-12.9v-19.35h12.9v19.35Zm-51.61-50.71,5.99-5.08-1.66-1.97-4.33,3.67v-2.68h-20.65v20.65h20.65v-14.59Zm-2.58-1.2-9.51,8.04h-0.13l-2.19-3.29-2.15,1.43,2.96,4.44h2.46l8.56-7.24v9.82h-15.49v-15.48h15.49v2.28Zm2.58,25.71,5.99-5.07-1.66-1.97-4.33,3.66v-2.67h-20.65v20.64h20.65v-14.59Zm-2.58-1.19-9.51,8.04h-0.13l-2.19-3.3-2.15,1.43,2.96,4.45h2.46l8.56-7.24v9.82h-15.49v-15.48h15.49v2.28Z" transform="translate(-1201 -2663)"/>
</svg>
