<svg xmlns="http://www.w3.org/2000/svg" width="55.03" height="98" viewBox="0 0 55.03 98">
  <metadata><?xpacket begin="﻿" id="W5M0MpCehiHzreSzNTczkc9d"?>
<x:xmpmeta xmlns:x="adobe:ns:meta/" x:xmptk="Adobe XMP Core 5.6-c138 79.159824, 2016/09/14-01:09:01        ">
   <rdf:RDF xmlns:rdf="http://www.w3.org/1999/02/22-rdf-syntax-ns#">
      <rdf:Description rdf:about=""/>
   </rdf:RDF>
</x:xmpmeta>
                                                                                                    
                                                                                                    
                                                                                                    
                                                                                                    
                                                                                                    
                                                                                                    
                                                                                                    
                                                                                                    
                                                                                                    
                                                                                                    
                                                                                                    
                                                                                                    
                                                                                                    
                                                                                                    
                                                                                                    
                                                                                                    
                                                                                                    
                                                                                                    
                                                                                                    
                                                                                                    
                           
<?xpacket end="w"?></metadata>
<defs>
    <style>
      .cls-1 {
        fill: red;
        fill-rule: evenodd;
      }
    </style>
  </defs>
  <path class="cls-1" d="M1257.93,2520.13l-3.31-10.55a4.512,4.512,0,0,0,1.64-4.99l-6.1-19.41h1.81a1.44,1.44,0,0,0,0-2.88h-2.72l-11.45-36.42a7.6,7.6,0,0,0,.28-2.03v-7.67a4.509,4.509,0,0,0-4.5-4.51h-1.63v-6.23a1.435,1.435,0,1,0-2.87,0v6.23h-1.63a4.509,4.509,0,0,0-4.5,4.51v7.67a7.539,7.539,0,0,0,.28,2.03l-11.45,36.42h-2.72a1.44,1.44,0,0,0,0,2.88h1.81l-6.1,19.41a4.5,4.5,0,0,0,1.64,4.99l-3.31,10.55a1.431,1.431,0,0,0,.94,1.8,1.251,1.251,0,0,0,.43.07,1.44,1.44,0,0,0,1.37-1.01l3.31-10.55a4.479,4.479,0,0,0,4.21-3.15l6.95-22.11h5.7v1.63a4.505,4.505,0,0,0,9.01,0v-1.63h5.7l6.95,22.11a4.479,4.479,0,0,0,4.21,3.15l3.31,10.55a1.44,1.44,0,0,0,1.37,1.01,1.251,1.251,0,0,0,.43-0.07A1.431,1.431,0,0,0,1257.93,2520.13Zm-32.11-83.95a1.63,1.63,0,0,1,1.63-1.63h6.13a1.63,1.63,0,0,1,1.63,1.63v7.67a4.607,4.607,0,0,1-.28,1.58,0.227,0.227,0,0,1-.01.04,4.688,4.688,0,0,1-8.8.02c-0.02-.06-0.04-0.11-0.06-0.17a4.766,4.766,0,0,1-.24-1.47v-7.67h0Zm-15.2,70.25a1.633,1.633,0,0,1-1.56,1.14,1.578,1.578,0,0,1-1.44-.88,1.617,1.617,0,0,1-.11-1.24l17.68-56.22a7.68,7.68,0,0,0,2.85,1.78Zm19.9-17.99a1.63,1.63,0,0,1-1.63-1.63v-6.14a1.625,1.625,0,1,1,3.25,0v3.07h0v3.07A1.628,1.628,0,0,1,1230.52,2488.44Zm4.5-6.14v-1.63a4.505,4.505,0,1,0-9.01,0v1.63h-4.79l9.3-29.58,9.3,29.58h-4.8Zm15.39,24.13-17.42-55.42a7.7,7.7,0,0,0,2.85-1.79l17.68,56.23a1.617,1.617,0,0,1-.11,1.24,1.578,1.578,0,0,1-1.44.88A1.633,1.633,0,0,1,1250.41,2506.43Zm-19.89-61.14a1.484,1.484,0,0,0,1.01-.42,1.435,1.435,0,1,0-2.03,0A1.49,1.49,0,0,0,1230.52,2445.29Z" transform="translate(-1203 -2424)"/>
</svg>
