<svg xmlns="http://www.w3.org/2000/svg" width="16" height="17" viewBox="0 0 16 17">
  <metadata><?xpacket begin="﻿" id="W5M0MpCehiHzreSzNTczkc9d"?>
<x:xmpmeta xmlns:x="adobe:ns:meta/" x:xmptk="Adobe XMP Core 5.6-c138 79.159824, 2016/09/14-01:09:01        ">
   <rdf:RDF xmlns:rdf="http://www.w3.org/1999/02/22-rdf-syntax-ns#">
      <rdf:Description rdf:about=""/>
   </rdf:RDF>
</x:xmpmeta>
                                                                                                    
                                                                                                    
                                                                                                    
                                                                                                    
                                                                                                    
                                                                                                    
                                                                                                    
                                                                                                    
                                                                                                    
                                                                                                    
                                                                                                    
                                                                                                    
                                                                                                    
                                                                                                    
                                                                                                    
                                                                                                    
                                                                                                    
                                                                                                    
                                                                                                    
                                                                                                    
                           
<?xpacket end="w"?></metadata>
<defs>
    <style>
      .cls-1 {
        fill: #818181;
        fill-rule: evenodd;
      }
    </style>
  </defs>
  <path id="Forma_1" data-name="Forma 1" class="cls-1" d="M1146.39,111h-13.4a0.6,0.6,0,0,0-.61.585v3.372h-0.77a0.586,0.586,0,1,0,0,1.17h0.77v2.788h-0.77a0.586,0.586,0,1,0,0,1.17h0.77v2.788h-0.77a0.585,0.585,0,1,0,0,1.169h0.77v3.373a0.6,0.6,0,0,0,.61.585h13.4a0.6,0.6,0,0,0,.61-0.585v-15.83A0.6,0.6,0,0,0,1146.39,111Zm-0.62,15.83h-12.16v-2.788h0.77a0.585,0.585,0,1,0,0-1.169h-0.77v-2.788h0.77a0.586,0.586,0,1,0,0-1.17h-0.77v-2.788h0.77a0.586,0.586,0,1,0,0-1.17h-0.77V112.17h12.16v14.66h0Zm-5.64-7.061a2.409,2.409,0,1,0-2.52-2.406A2.467,2.467,0,0,0,1140.13,119.769Zm0-3.642a1.238,1.238,0,1,1-1.3,1.236A1.266,1.266,0,0,1,1140.13,116.127Zm-2.81,8.016a0.6,0.6,0,0,0,.62-0.585v-1.011a1.2,1.2,0,0,1,1.23-1.176h1.93a1.213,1.213,0,0,1,1.24,1.176v1.011a0.611,0.611,0,0,0,1.22,0v-1.011a2.406,2.406,0,0,0-2.46-2.346h-1.93a2.406,2.406,0,0,0-2.46,2.346v1.011A0.6,0.6,0,0,0,1137.32,124.143Z" transform="translate(-1131 -111)"/>
</svg>
