<svg xmlns="http://www.w3.org/2000/svg" width="86" height="77" viewBox="0 0 86 77">
  <metadata><?xpacket begin="﻿" id="W5M0MpCehiHzreSzNTczkc9d"?>
<x:xmpmeta xmlns:x="adobe:ns:meta/" x:xmptk="Adobe XMP Core 5.6-c138 79.159824, 2016/09/14-01:09:01        ">
   <rdf:RDF xmlns:rdf="http://www.w3.org/1999/02/22-rdf-syntax-ns#">
      <rdf:Description rdf:about=""/>
   </rdf:RDF>
</x:xmpmeta>
                                                                                                    
                                                                                                    
                                                                                                    
                                                                                                    
                                                                                                    
                                                                                                    
                                                                                                    
                                                                                                    
                                                                                                    
                                                                                                    
                                                                                                    
                                                                                                    
                                                                                                    
                                                                                                    
                                                                                                    
                                                                                                    
                                                                                                    
                                                                                                    
                                                                                                    
                                                                                                    
                           
<?xpacket end="w"?></metadata>
<defs>
    <style>
      .cls-1 {
        fill: red;
        fill-rule: evenodd;
      }
    </style>
  </defs>
  <path id="Forma_1" data-name="Forma 1" class="cls-1" d="M342.352,2672h-72.7a6.674,6.674,0,0,0-6.648,6.68v43.33a6.674,6.674,0,0,0,6.648,6.68h26.927a1.27,1.27,0,0,0,0-2.54H269.648a4.138,4.138,0,0,1-4.124-4.14v-43.33a4.138,4.138,0,0,1,4.124-4.14h72.7a4.138,4.138,0,0,1,4.124,4.14v43.33a1.262,1.262,0,1,0,2.524,0v-43.33A6.674,6.674,0,0,0,342.352,2672Zm-44.43,44.68H273.687a1.27,1.27,0,0,0,0,2.54h24.235A1.27,1.27,0,0,0,297.922,2716.68Zm-9.509-23.1v-5.42a3.975,3.975,0,0,0-3.955-3.98H276.38a3.975,3.975,0,0,0-3.955,3.98v5.42a3.966,3.966,0,0,0,3.955,3.97h8.078A3.966,3.966,0,0,0,288.413,2693.58Zm-13.464,0v-1.44h1.431a1.27,1.27,0,0,0,0-2.54h-1.431v-1.44a1.44,1.44,0,0,1,1.431-1.44h2.777v8.3H276.38A1.44,1.44,0,0,1,274.949,2693.58Zm9.509,1.44h-2.777v-8.3h2.777a1.439,1.439,0,0,1,1.43,1.44v1.44h-1.43a1.27,1.27,0,0,0,0,2.54h1.43v1.44A1.439,1.439,0,0,1,284.458,2695.02Zm48.47,2.53a6.685,6.685,0,0,0,0-13.37h-8.079a6.685,6.685,0,0,0,0,13.37h8.079Zm-12.2-6.68a4.14,4.14,0,0,1,4.123-4.15h8.079a4.15,4.15,0,0,1,0,8.3h-8.079A4.14,4.14,0,0,1,320.726,2690.87Zm1.43,14.98a21.575,21.575,0,1,0,21.458,21.57A21.541,21.541,0,0,0,322.156,2705.85Zm0,40.61a19.04,19.04,0,1,1,18.934-19.04A19.008,19.008,0,0,1,322.156,2746.46Zm10.318-29.41a1.25,1.25,0,0,0-1.785,0L311.839,2736a1.268,1.268,0,1,0,1.785,1.8l18.85-18.96A1.268,1.268,0,0,0,332.474,2717.05Zm-16.376,8.93a6.005,6.005,0,1,0-5.975-6A5.993,5.993,0,0,0,316.1,2725.98Zm0-9.47a3.47,3.47,0,1,1-3.45,3.47A3.46,3.46,0,0,1,316.1,2716.51Zm13.464,11a6.005,6.005,0,1,0,5.974,6.01A6,6,0,0,0,329.562,2727.51Zm0,9.47a3.465,3.465,0,1,1,3.45-3.46A3.458,3.458,0,0,1,329.562,2736.98Zm-31.64-27.3H273.687a1.27,1.27,0,0,0,0,2.54h24.235A1.27,1.27,0,0,0,297.922,2709.68Zm43-20H316.687a1.27,1.27,0,0,0,0,2.54h24.235A1.27,1.27,0,0,0,340.922,2689.68Z" transform="translate(-263 -2672)"/>
</svg>
