<svg xmlns="http://www.w3.org/2000/svg" width="106" height="82" viewBox="0 0 106 82">
  <metadata><?xpacket begin="﻿" id="W5M0MpCehiHzreSzNTczkc9d"?>
<x:xmpmeta xmlns:x="adobe:ns:meta/" x:xmptk="Adobe XMP Core 5.6-c138 79.159824, 2016/09/14-01:09:01        ">
   <rdf:RDF xmlns:rdf="http://www.w3.org/1999/02/22-rdf-syntax-ns#">
      <rdf:Description rdf:about=""/>
   </rdf:RDF>
</x:xmpmeta>
                                                                                                    
                                                                                                    
                                                                                                    
                                                                                                    
                                                                                                    
                                                                                                    
                                                                                                    
                                                                                                    
                                                                                                    
                                                                                                    
                                                                                                    
                                                                                                    
                                                                                                    
                                                                                                    
                                                                                                    
                                                                                                    
                                                                                                    
                                                                                                    
                                                                                                    
                                                                                                    
                           
<?xpacket end="w"?></metadata>
<defs>
    <style>
      .cls-1 {
        fill: red;
        fill-rule: evenodd;
      }
    </style>
  </defs>
  <path class="cls-1" d="M822.472,2710.37l-14.858-17.07c-0.405-.46-0.989-1.69-1.6-1.69H791.286v-12.76c0-1.18.01-1.17-1.167-1.17H759.506c-2.179-9.56-10.76-17.68-20.986-17.68a21.473,21.473,0,0,0-17.53,33.94v31.64h-1.859a2.13,2.13,0,1,0,0,4.26h1.859v2.48a2.128,2.128,0,0,0,2.131,2.13h4.2a9.693,9.693,0,0,0,18.906,0h49.982a9.693,9.693,0,0,0,18.906,0h6.719c1.177,0,1.167-.95,1.167-2.13v-19.58A5.523,5.523,0,0,0,822.472,2710.37Zm-62.438-29.4h27.954v35.59h-63.7v-18.17a24.291,24.291,0,0,0,14.232,4.59,21.529,21.529,0,0,0,21.521-21.49C760.041,2681.32,760.039,2681.14,760.034,2680.97Zm-39.736.52c0-9.5,8.706-18.2,18.222-18.2s18.223,8.7,18.223,18.2-8.706,18.2-18.223,18.2S720.3,2690.99,720.3,2681.49Zm67.69,49.67h-40.8a10.8,10.8,0,0,0-10.416-8.51c-4.612,0-8.479,4.19-9.453,8.51h-3.032v-11.31h63.7v11.31ZM808,2698.27l11.182,12.48H808v-12.48Zm11.7,32.89h-4.588c-0.974-4.32-4.841-8.51-9.453-8.51s-8.479,4.19-9.453,8.51h-4.922V2694.9H804.7v17.01c0,1.18-.01,2.13,1.167,2.13H819.7v17.12ZM782.84,2710h-17.9a2.128,2.128,0,0,0-2.131,2.13c0,1.17.954,1.16,2.131,1.16h17.9c1.177,0,2.131.01,2.131-1.16A2.128,2.128,0,0,0,782.84,2710Zm-24.5,0h-1.278a2.125,2.125,0,1,0,0,4.25h1.278A2.125,2.125,0,1,0,758.336,2710Zm-14.585-25.34-4.063-4.05v-11.89c0-1.17.009-2.12-1.168-2.12s-1.167.95-1.167,2.12l-0.963,12.77c0,0.56,1.188,1.1,1.587,1.5l4.688,4.68c0.416,0.42,0,.63.543,0.63a2.115,2.115,0,0,0,1.507-.63C745.547,2686.84,744.583,2685.5,743.751,2684.66Zm61.9,40.93a6.75,6.75,0,1,1-6.75,6.75A6.755,6.755,0,0,1,805.656,2725.59Zm-68.422,0a6.75,6.75,0,1,1-6.734,6.75A6.747,6.747,0,0,1,737.234,2725.59Z" transform="translate(-717 -2660)"/>
</svg>
