<svg xmlns="http://www.w3.org/2000/svg" width="25.28" height="24.906" viewBox="0 0 25.28 24.906">
  <metadata><?xpacket begin="﻿" id="W5M0MpCehiHzreSzNTczkc9d"?>
<x:xmpmeta xmlns:x="adobe:ns:meta/" x:xmptk="Adobe XMP Core 5.6-c138 79.159824, 2016/09/14-01:09:01        ">
   <rdf:RDF xmlns:rdf="http://www.w3.org/1999/02/22-rdf-syntax-ns#">
      <rdf:Description rdf:about=""/>
   </rdf:RDF>
</x:xmpmeta>
                                                                                                    
                                                                                                    
                                                                                                    
                                                                                                    
                                                                                                    
                                                                                                    
                                                                                                    
                                                                                                    
                                                                                                    
                                                                                                    
                                                                                                    
                                                                                                    
                                                                                                    
                                                                                                    
                                                                                                    
                                                                                                    
                                                                                                    
                                                                                                    
                                                                                                    
                                                                                                    
                           
<?xpacket end="w"?></metadata>
<defs>
    <style>
      .cls-1 {
        fill: #fffffb;
      }

      .cls-2 {
        fill: red;
        fill-rule: evenodd;
      }
    </style>
  </defs>
  <ellipse id="Ellipse_552_copy_2" data-name="Ellipse 552 copy 2" class="cls-1" cx="12.64" cy="12.453" rx="12.64" ry="12.453"/>
  <path id="google_" data-name="google +" class="cls-2" d="M1342.61,23.8h-4.02a3.538,3.538,0,0,0-3.51,3.314,3.09,3.09,0,0,0,3.07,3.284c0.13,0,.25,0,0.37-0.013a2,2,0,0,0-.2.844,1.862,1.862,0,0,0,.54,1.249c-0.23,0-.45.008-0.69,0.008-2.24,0-3.96,1.6-3.96,3.256,0,1.633,1.89,2.654,4.12,2.654,2.55,0,3.96-1.624,3.96-3.256a3.253,3.253,0,0,0-1.41-2.937,2.918,2.918,0,0,1-1.06-1.406,1.533,1.533,0,0,1,.77-1.293,3.138,3.138,0,0,0,1.14-2.361,2.759,2.759,0,0,0-1.3-2.61h1.28Zm-1.4,11.057a2.387,2.387,0,0,1,.04.466c0,1.319-.75,2.35-2.93,2.35a2.514,2.514,0,0,1-2.66-2.418c0-1.292,1.39-2.369,2.93-2.35a2.99,2.99,0,0,1,1,.181C1340.43,33.738,1341.04,34.108,1341.21,34.854Zm-2.48-4.921c-1.04-.035-2.02-1.3-2.2-2.832s0.51-2.7,1.55-2.665,2.03,1.262,2.2,2.791S1339.77,29.968,1338.73,29.934Zm7.98-2.9V23.8h-0.96v3.239h-2.88v1.08h2.88v3.239h0.96V28.116h2.89v-1.08h-2.89Z" transform="translate(-1328.72 -18)"/>
</svg>
