<svg xmlns="http://www.w3.org/2000/svg" width="31.72" height="31.66" viewBox="0 0 31.72 31.66">
  <metadata><?xpacket begin="﻿" id="W5M0MpCehiHzreSzNTczkc9d"?>
<x:xmpmeta xmlns:x="adobe:ns:meta/" x:xmptk="Adobe XMP Core 5.6-c138 79.159824, 2016/09/14-01:09:01        ">
   <rdf:RDF xmlns:rdf="http://www.w3.org/1999/02/22-rdf-syntax-ns#">
      <rdf:Description rdf:about=""/>
   </rdf:RDF>
</x:xmpmeta>
                                                                                                    
                                                                                                    
                                                                                                    
                                                                                                    
                                                                                                    
                                                                                                    
                                                                                                    
                                                                                                    
                                                                                                    
                                                                                                    
                                                                                                    
                                                                                                    
                                                                                                    
                                                                                                    
                                                                                                    
                                                                                                    
                                                                                                    
                                                                                                    
                                                                                                    
                                                                                                    
                           
<?xpacket end="w"?></metadata>
<defs>
    <style>
      .cls-1 {
        fill: #423f3f;
        stroke: #434343;
      }

      .cls-1, .cls-2 {
        stroke-width: 1px;
        fill-rule: evenodd;
      }

      .cls-2 {
        fill: #34404b;
        stroke: #fffffb;
      }
    </style>
  </defs>
  <path id="Ellipse_552_copy_2" data-name="Ellipse 552 copy 2" class="cls-1" d="M1184.64,4769a15.335,15.335,0,1,1-15.36,15.33A15.345,15.345,0,0,1,1184.64,4769Z" transform="translate(-1168.78 -4768.5)"/>
  <path id="google_" data-name="google +" class="cls-2" d="M1186.38,4776.01h-4.97a4.355,4.355,0,0,0-4.32,4.09,3.8,3.8,0,0,0,3.78,4.04c0.16,0,.31,0,0.46-0.01a2.415,2.415,0,0,0-.25,1.04,2.3,2.3,0,0,0,.67,1.54c-0.28,0-.56.01-0.86,0.01-2.75,0-4.88,1.97-4.88,4.01,0,2.02,2.33,3.27,5.09,3.27,3.14,0,4.88-2,4.88-4.01a4.034,4.034,0,0,0-1.74-3.62,3.591,3.591,0,0,1-1.31-1.74,1.882,1.882,0,0,1,.96-1.59,3.88,3.88,0,0,0,1.4-2.91,3.419,3.419,0,0,0-1.6-3.22h1.57Zm-1.74,13.63a2.784,2.784,0,0,1,.06.58c0,1.62-.93,2.89-3.61,2.89a3.1,3.1,0,0,1-3.29-2.98c0-1.59,1.71-2.92,3.62-2.89a3.492,3.492,0,0,1,1.23.22C1183.69,4788.27,1184.43,4788.72,1184.64,4789.64Zm-3.05-6.06c-1.28-.05-2.5-1.61-2.72-3.5s0.64-3.32,1.92-3.28,2.49,1.56,2.72,3.44S1182.87,4783.62,1181.59,4783.58Zm9.85-3.58v-3.99h-1.19V4780h-3.56v1.33h3.56v4h1.19v-4h3.55V4780h-3.55Z" transform="translate(-1168.78 -4768.5)"/>
</svg>
