<svg xmlns="http://www.w3.org/2000/svg" width="19" height="19" viewBox="0 0 19 19">
  <metadata><?xpacket begin="﻿" id="W5M0MpCehiHzreSzNTczkc9d"?>
<x:xmpmeta xmlns:x="adobe:ns:meta/" x:xmptk="Adobe XMP Core 5.6-c138 79.159824, 2016/09/14-01:09:01        ">
   <rdf:RDF xmlns:rdf="http://www.w3.org/1999/02/22-rdf-syntax-ns#">
      <rdf:Description rdf:about=""/>
   </rdf:RDF>
</x:xmpmeta>
                                                                                                    
                                                                                                    
                                                                                                    
                                                                                                    
                                                                                                    
                                                                                                    
                                                                                                    
                                                                                                    
                                                                                                    
                                                                                                    
                                                                                                    
                                                                                                    
                                                                                                    
                                                                                                    
                                                                                                    
                                                                                                    
                                                                                                    
                                                                                                    
                                                                                                    
                                                                                                    
                           
<?xpacket end="w"?></metadata>
<defs>
    <style>
      .cls-1 {
        fill: #858585;
        fill-rule: evenodd;
      }
    </style>
  </defs>
  <path id="Forma_1" data-name="Forma 1" class="cls-1" d="M990.951,122.957a0.791,0.791,0,0,0-.325.641v3.789l-2.819-2.675a0.808,0.808,0,0,0-.671-0.206,9.578,9.578,0,0,1-1.636.128c-4.366,0-7.918-2.7-7.918-6.025s3.552-6.025,7.918-6.025,7.918,2.7,7.918,6.025a5.409,5.409,0,0,1-2.467,4.348h0ZM985.5,111c-5.239,0-9.5,3.412-9.5,7.609s4.261,7.609,9.5,7.609a12.065,12.065,0,0,0,1.5-.093l3.878,3.68a0.956,0.956,0,0,0,.857.152,0.764,0.764,0,0,0,.481-0.73v-5.233A6.944,6.944,0,0,0,995,118.613c0-4.2-4.262-7.613-9.5-7.613h0Zm0,2.527a2.954,2.954,0,0,0-2.951,2.955,0.8,0.8,0,1,0,1.59,0,1.361,1.361,0,1,1,2.214,1.063,3.915,3.915,0,0,0-1.485,3.075,0.795,0.795,0,1,0,1.589,0,2.291,2.291,0,0,1,.838-1.793,0.215,0.215,0,0,0,.035-0.028,2.955,2.955,0,0,0-1.83-5.272h0Zm0,8.444a0.85,0.85,0,1,0,.849.85,0.85,0.85,0,0,0-.849-0.85h0Z" transform="translate(-976 -111)"/>
</svg>
