<svg xmlns="http://www.w3.org/2000/svg" width="17" height="17" viewBox="0 0 17 17">
  <metadata><?xpacket begin="﻿" id="W5M0MpCehiHzreSzNTczkc9d"?>
<x:xmpmeta xmlns:x="adobe:ns:meta/" x:xmptk="Adobe XMP Core 5.6-c138 79.159824, 2016/09/14-01:09:01        ">
   <rdf:RDF xmlns:rdf="http://www.w3.org/1999/02/22-rdf-syntax-ns#">
      <rdf:Description rdf:about=""/>
   </rdf:RDF>
</x:xmpmeta>
                                                                                                    
                                                                                                    
                                                                                                    
                                                                                                    
                                                                                                    
                                                                                                    
                                                                                                    
                                                                                                    
                                                                                                    
                                                                                                    
                                                                                                    
                                                                                                    
                                                                                                    
                                                                                                    
                                                                                                    
                                                                                                    
                                                                                                    
                                                                                                    
                                                                                                    
                                                                                                    
                           
<?xpacket end="w"?></metadata>
<defs>
    <style>
      .cls-1 {
        fill: #9f9f9f;
        fill-rule: evenodd;
      }
    </style>
  </defs>
  <path id="Forma_1" data-name="Forma 1" class="cls-1" d="M471.514,126H455.485a0.487,0.487,0,0,1-.486-0.486V109.486a0.487,0.487,0,0,1,.486-0.486h16.029a0.486,0.486,0,0,1,.485.486v16.028A0.486,0.486,0,0,1,471.514,126Zm-15.543-.971h15.058V109.971H455.971v15.058Zm-0.486.971a0.485,0.485,0,0,1-.361-0.81l4.857-5.408a0.486,0.486,0,0,1,.694-0.03l1.263,1.185,3.827-3.783a0.486,0.486,0,0,1,.667-0.015l5.408,4.873a0.485,0.485,0,0,1,.16.361v3.141a0.485,0.485,0,0,1-.485.485h-5.408a0.49,0.49,0,0,1-.333-0.131l-5.4-5.067-4.526,5.038A0.481,0.481,0,0,1,455.485,126Zm10.813-.971h4.731V122.59l-4.907-4.422-3.475,3.435Zm-5.81-7.383a2.332,2.332,0,1,1,2.332-2.332A2.335,2.335,0,0,1,460.488,117.646Zm0-3.691a1.36,1.36,0,1,0,1.36,1.359A1.361,1.361,0,0,0,460.488,113.955Z" transform="translate(-455 -109)"/>
</svg>
