<svg xmlns="http://www.w3.org/2000/svg" width="76" height="113" viewBox="0 0 76 113">
  <metadata><?xpacket begin="﻿" id="W5M0MpCehiHzreSzNTczkc9d"?>
<x:xmpmeta xmlns:x="adobe:ns:meta/" x:xmptk="Adobe XMP Core 5.6-c138 79.159824, 2016/09/14-01:09:01        ">
   <rdf:RDF xmlns:rdf="http://www.w3.org/1999/02/22-rdf-syntax-ns#">
      <rdf:Description rdf:about=""/>
   </rdf:RDF>
</x:xmpmeta>
                                                                                                    
                                                                                                    
                                                                                                    
                                                                                                    
                                                                                                    
                                                                                                    
                                                                                                    
                                                                                                    
                                                                                                    
                                                                                                    
                                                                                                    
                                                                                                    
                                                                                                    
                                                                                                    
                                                                                                    
                                                                                                    
                                                                                                    
                                                                                                    
                                                                                                    
                                                                                                    
                           
<?xpacket end="w"?></metadata>
<defs>
    <style>
      .cls-1 {
        fill: red;
      }

      .cls-1, .cls-2 {
        fill-rule: evenodd;
      }

      .cls-2 {
        fill: none;
        stroke: #e61717;
        stroke-width: 2px;
      }
    </style>
  </defs>
  <path id="Forma_1" data-name="Forma 1" class="cls-1" d="M763,2429.23v13.3a1.073,1.073,0,0,0,1.079,1.06h2.9v9.26a1.073,1.073,0,0,0,1.079,1.06h2.307v8.04a1.031,1.031,0,0,0,.246.67l3.309,3.96v36.04l-3.049-3a1.1,1.1,0,0,0-1.527,0,1.049,1.049,0,0,0,0,1.5l3.067,3.02h-4.336a1.06,1.06,0,1,0,0,2.12h4.336l-3.067,3.01a1.049,1.049,0,0,0,0,1.5,1.1,1.1,0,0,0,1.527,0l3.049-3v4.17a1.08,1.08,0,0,0,2.159,0v-4.2l3.083,3.03a1.094,1.094,0,0,0,1.526,0,1.047,1.047,0,0,0,0-1.5l-3.066-3.01h4.336a1.06,1.06,0,1,0,0-2.12h-4.336l3.066-3.02a1.047,1.047,0,0,0,0-1.5,1.1,1.1,0,0,0-1.526,0l-3.083,3.03v-36.07l3.309-3.96a1.031,1.031,0,0,0,.246-0.67v-8.04h2.307a1.073,1.073,0,0,0,1.079-1.06v-9.26h2.9a1.073,1.073,0,0,0,1.08-1.06v-25.47a1.067,1.067,0,0,0-1.08-1.06H764.08a1.067,1.067,0,0,0-1.079,1.06v3.89m21.84-2.83v10.03H765.184a1.155,1.155,0,0,0-.024-0.21v-5.7a1.052,1.052,0,0,0,.026-0.23,0.961,0.961,0,0,0-.026-0.22v-3.67h19.681ZM763,2423.07v4.04m14.475,34.46L775,2464.53l-2.476-2.96v-7.66h4.952v7.66Zm3.387-9.79H769.139v-8.19h11.724v8.19Zm-15.7-10.31v-6.18h12.151a1.06,1.06,0,1,0,0-2.12H765.16v-2.9h19.681v11.2H765.16Zm5.608-18.02h8.465a1.06,1.06,0,1,0,0-2.12h-8.465A1.06,1.06,0,1,0,770.768,2423.45Z" transform="translate(-737 -2416)"/>
  <path class="cls-2" d="M743,2505h64" transform="translate(-737 -2416)"/>
  <path class="cls-2" d="M787,2486v11h10v8" transform="translate(-737 -2416)"/>
  <path id="Shape_624_copy" data-name="Shape 624 copy" class="cls-2" d="M756,2507v11h10v8" transform="translate(-737 -2416)"/>
  <path class="cls-2" d="M746,2485l-8,43h67l7-43H746Z" transform="translate(-737 -2416)"/>
</svg>
