<svg xmlns="http://www.w3.org/2000/svg" width="16" height="20" viewBox="0 0 16 20">
  <metadata><?xpacket begin="﻿" id="W5M0MpCehiHzreSzNTczkc9d"?>
<x:xmpmeta xmlns:x="adobe:ns:meta/" x:xmptk="Adobe XMP Core 5.6-c138 79.159824, 2016/09/14-01:09:01        ">
   <rdf:RDF xmlns:rdf="http://www.w3.org/1999/02/22-rdf-syntax-ns#">
      <rdf:Description rdf:about=""/>
   </rdf:RDF>
</x:xmpmeta>
                                                                                                    
                                                                                                    
                                                                                                    
                                                                                                    
                                                                                                    
                                                                                                    
                                                                                                    
                                                                                                    
                                                                                                    
                                                                                                    
                                                                                                    
                                                                                                    
                                                                                                    
                                                                                                    
                                                                                                    
                                                                                                    
                                                                                                    
                                                                                                    
                                                                                                    
                                                                                                    
                           
<?xpacket end="w"?></metadata>
<defs>
    <style>
      .cls-1 {
        fill: #d9000f;
        fill-rule: evenodd;
      }
    </style>
  </defs>
  <path class="cls-1" d="M204.56,108H189.44a0.42,0.42,0,0,0-.44.4v19.2a0.421,0.421,0,0,0,.44.4h11.5a0.466,0.466,0,0,0,.311-0.117l3.623-3.281A0.379,0.379,0,0,0,205,124.32V108.4A0.42,0.42,0,0,0,204.56,108Zm-3.184,18.64,0-1.924,2.125,0Zm2.744-2.718-3.186,0h0a0.461,0.461,0,0,0-.311.117,0.378,0.378,0,0,0-.129.282l0,2.885H189.88V108.8h14.24v15.126Zm-9.784-12.571a0.474,0.474,0,0,0-.622,0l-1.295,1.173-0.321-.292a0.474,0.474,0,0,0-.622,0,0.373,0.373,0,0,0,0,.564l0.632,0.573a0.475,0.475,0,0,0,.622,0l1.606-1.455A0.372,0.372,0,0,0,194.336,111.351Zm7.877,0.794h-0.154a0.4,0.4,0,1,0,0,.8h0.154A0.4,0.4,0,1,0,202.213,112.145Zm-1.562,0h-4.925a0.4,0.4,0,1,0,0,.8h4.925A0.4,0.4,0,1,0,200.651,112.145Zm-6.315,3.063a0.472,0.472,0,0,0-.622,0l-1.295,1.172-0.321-.291a0.474,0.474,0,0,0-.622,0,0.373,0.373,0,0,0,0,.564l0.632,0.573a0.475,0.475,0,0,0,.622,0l1.606-1.455A0.372,0.372,0,0,0,194.336,115.208ZM202.213,116h-6.487a0.4,0.4,0,1,0,0,.8h6.487A0.4,0.4,0,1,0,202.213,116Zm-7.877,3.051a0.472,0.472,0,0,0-.622,0l-1.295,1.172-0.321-.291a0.472,0.472,0,0,0-.622,0,0.372,0.372,0,0,0,0,.563l0.632,0.573a0.472,0.472,0,0,0,.622,0l1.606-1.454A0.372,0.372,0,0,0,194.336,119.053Zm7.877,0.794h-6.487a0.4,0.4,0,1,0,0,.8h6.487A0.4,0.4,0,1,0,202.213,119.847Z" transform="translate(-189 -108)"/>
</svg>
