<svg xmlns="http://www.w3.org/2000/svg" width="21" height="21" viewBox="0 0 21 21">
  <metadata><?xpacket begin="﻿" id="W5M0MpCehiHzreSzNTczkc9d"?>
<x:xmpmeta xmlns:x="adobe:ns:meta/" x:xmptk="Adobe XMP Core 5.6-c138 79.159824, 2016/09/14-01:09:01        ">
   <rdf:RDF xmlns:rdf="http://www.w3.org/1999/02/22-rdf-syntax-ns#">
      <rdf:Description rdf:about=""/>
   </rdf:RDF>
</x:xmpmeta>
                                                                                                    
                                                                                                    
                                                                                                    
                                                                                                    
                                                                                                    
                                                                                                    
                                                                                                    
                                                                                                    
                                                                                                    
                                                                                                    
                                                                                                    
                                                                                                    
                                                                                                    
                                                                                                    
                                                                                                    
                                                                                                    
                                                                                                    
                                                                                                    
                                                                                                    
                                                                                                    
                           
<?xpacket end="w"?></metadata>
<defs>
    <style>
      .cls-1 {
        fill: #fff;
        fill-rule: evenodd;
      }
    </style>
  </defs>
  <path id="Forma_1" data-name="Forma 1" class="cls-1" d="M207.989,37.571a1.011,1.011,0,0,1-.311.889L204.721,41.4a1.645,1.645,0,0,1-.522.378,2.166,2.166,0,0,1-.634.2c-0.015,0-.059,0-0.133.011S203.261,42,203.143,42a9.817,9.817,0,0,1-3.68-.857,19.391,19.391,0,0,1-3.1-1.7,23.111,23.111,0,0,1-3.69-3.114,24.379,24.379,0,0,1-2.579-2.937,20.907,20.907,0,0,1-1.645-2.591,14.042,14.042,0,0,1-.934-2.158,11.507,11.507,0,0,1-.422-1.668,5.512,5.512,0,0,1-.089-1.1c0.015-.267.022-0.415,0.022-0.445a2.179,2.179,0,0,1,.2-0.635,1.686,1.686,0,0,1,.378-0.523l2.957-2.958A0.976,0.976,0,0,1,191.271,21a0.832,0.832,0,0,1,.512.166,1.516,1.516,0,0,1,.377.412l2.379,4.515a1.078,1.078,0,0,1,.111.779,1.381,1.381,0,0,1-.378.711l-1.089,1.091a0.366,0.366,0,0,0-.078.144,0.556,0.556,0,0,0-.033.166,4.026,4.026,0,0,0,.4,1.068,9.764,9.764,0,0,0,.823,1.3,14.4,14.4,0,0,0,1.578,1.769,14.627,14.627,0,0,0,1.779,1.59,10.155,10.155,0,0,0,1.3.835,3.405,3.405,0,0,0,.8.323l0.277,0.055a0.519,0.519,0,0,0,.145-0.033,0.375,0.375,0,0,0,.144-0.078l1.267-1.29a1.361,1.361,0,0,1,.934-0.356,1.166,1.166,0,0,1,.6.134h0.022l4.29,2.536A1.117,1.117,0,0,1,207.989,37.571Z" transform="translate(-187 -21)"/>
</svg>
