<svg xmlns="http://www.w3.org/2000/svg" width="16" height="16" viewBox="0 0 16 16">
  <metadata><?xpacket begin="﻿" id="W5M0MpCehiHzreSzNTczkc9d"?>
<x:xmpmeta xmlns:x="adobe:ns:meta/" x:xmptk="Adobe XMP Core 5.6-c138 79.159824, 2016/09/14-01:09:01        ">
   <rdf:RDF xmlns:rdf="http://www.w3.org/1999/02/22-rdf-syntax-ns#">
      <rdf:Description rdf:about=""/>
   </rdf:RDF>
</x:xmpmeta>
                                                                                                    
                                                                                                    
                                                                                                    
                                                                                                    
                                                                                                    
                                                                                                    
                                                                                                    
                                                                                                    
                                                                                                    
                                                                                                    
                                                                                                    
                                                                                                    
                                                                                                    
                                                                                                    
                                                                                                    
                                                                                                    
                                                                                                    
                                                                                                    
                                                                                                    
                                                                                                    
                           
<?xpacket end="w"?></metadata>
<defs>
    <style>
      .cls-1 {
        fill: #3d3d3d;
        fill-rule: evenodd;
      }
    </style>
  </defs>
  <path id="Forma_1_copy_2" data-name="Forma 1 copy 2" class="cls-1" d="M653.992,4847.63a0.756,0.756,0,0,1-.237.67l-2.253,2.24a1.339,1.339,0,0,1-.4.29,1.544,1.544,0,0,1-.483.15,0.552,0.552,0,0,0-.1.01,1.392,1.392,0,0,1-.22.01,8.436,8.436,0,0,1-1.042-.11,8.146,8.146,0,0,1-1.762-.54,14.714,14.714,0,0,1-2.363-1.3,18.1,18.1,0,0,1-2.811-2.37,18.661,18.661,0,0,1-1.965-2.24,15.481,15.481,0,0,1-1.254-1.98,10.493,10.493,0,0,1-.711-1.64,8.624,8.624,0,0,1-.322-1.27,4.31,4.31,0,0,1-.068-0.84c0.012-.2.017-0.32,0.017-0.34a1.6,1.6,0,0,1,.153-0.48,1.3,1.3,0,0,1,.288-0.4l2.253-2.25a0.741,0.741,0,0,1,.542-0.24,0.6,0.6,0,0,1,.389.13,1.023,1.023,0,0,1,.288.31l1.812,3.44a0.819,0.819,0,0,1,.085.59,1.069,1.069,0,0,1-.288.55l-0.83.83a0.277,0.277,0,0,0-.059.11,0.393,0.393,0,0,0-.025.12,3.114,3.114,0,0,0,.3.82,7.65,7.65,0,0,0,.627.99,11.039,11.039,0,0,0,1.2,1.35,11.333,11.333,0,0,0,1.355,1.21,6.889,6.889,0,0,0,.991.63,2.569,2.569,0,0,0,.609.25l0.212,0.04a0.83,0.83,0,0,0,.11-0.02,0.371,0.371,0,0,0,.11-0.06l0.966-.99a1.038,1.038,0,0,1,.711-0.27,0.863,0.863,0,0,1,.458.11H650.3l3.27,1.93A0.829,0.829,0,0,1,653.992,4847.63Z" transform="translate(-638 -4835)"/>
</svg>
