<svg xmlns="http://www.w3.org/2000/svg" width="83" height="83" viewBox="0 0 83 83">
  <metadata><?xpacket begin="﻿" id="W5M0MpCehiHzreSzNTczkc9d"?>
<x:xmpmeta xmlns:x="adobe:ns:meta/" x:xmptk="Adobe XMP Core 5.6-c138 79.159824, 2016/09/14-01:09:01        ">
   <rdf:RDF xmlns:rdf="http://www.w3.org/1999/02/22-rdf-syntax-ns#">
      <rdf:Description rdf:about=""/>
   </rdf:RDF>
</x:xmpmeta>
                                                                                                    
                                                                                                    
                                                                                                    
                                                                                                    
                                                                                                    
                                                                                                    
                                                                                                    
                                                                                                    
                                                                                                    
                                                                                                    
                                                                                                    
                                                                                                    
                                                                                                    
                                                                                                    
                                                                                                    
                                                                                                    
                                                                                                    
                                                                                                    
                                                                                                    
                                                                                                    
                           
<?xpacket end="w"?></metadata>
<defs>
    <style>
      .cls-1 {
        fill: red;
        fill-rule: evenodd;
      }
    </style>
  </defs>
  <path class="cls-1" d="M335.742,2503.77l-1.364-.55a41.5,41.5,0,0,0,3.434-51.07,1.127,1.127,0,0,0-.207-0.29,41.553,41.553,0,0,0-7.23-7.98,1.308,1.308,0,0,0-1.7,1.99,39.307,39.307,0,0,1,5.932,6.31,58.627,58.627,0,0,1-9.821,2.73,46.649,46.649,0,0,0-3.77-8.48,29.915,29.915,0,0,0-6.8-8.31,38.572,38.572,0,0,1,11.021,5.14,1.31,1.31,0,1,0,1.467-2.17,41.5,41.5,0,0,0-54.065,62.15l-1.346.53a7.444,7.444,0,0,0-4.713,7.22v4.7a1.313,1.313,0,0,0,1.311,1.31h19.29c0.063,0,.125-0.01.186-0.01s0.122,0.01.185,0.01h5.333a1.31,1.31,0,1,0,0-2.62h-4.022v-4.57a6.4,6.4,0,0,1,3.935-6.25c0.02-.01.04-0.01,0.06-0.02l6.382-2.5c0.014,0.01.027,0.03,0.042,0.04l3.391,3.31a1.3,1.3,0,0,0,.915.37h0.02a1.333,1.333,0,0,0,.923-0.4l3.257-3.38,6.373,2.55c0.023,0.01.039,0.02,0.062,0.03a6.39,6.39,0,0,1,3.944,6.25v4.57H296.98a1.31,1.31,0,1,0,0,2.62h42.158a1.32,1.32,0,0,0,1.31-1.32v-4.69A7.445,7.445,0,0,0,335.742,2503.77Zm-3.966-1.59-1.292-.52v-0.74a6.867,6.867,0,0,0,3.047-3.78,3.7,3.7,0,0,0,2.047-6.56v-2.33a8.844,8.844,0,0,0-7.713-8.76c0.049-.89.083-1.78,0.1-2.68h14.39A38.674,38.674,0,0,1,331.776,2502.18Zm-4.731-2.95H325.85a4.2,4.2,0,0,1-4.2-4.2v-3.47h0a13.534,13.534,0,0,0,7.061-2.72,5.952,5.952,0,0,0,2.534,2.43v3.76A4.2,4.2,0,0,1,327.045,2499.23Zm0.819,2.57v0.73l-1.461,1.51-1.372-1.33v-0.91a7.38,7.38,0,0,0,.819.05h1.195A7.38,7.38,0,0,0,327.864,2501.8Zm-7.52-12.77h0a0.6,0.6,0,0,0-.134.01h-0.042c-0.03.01-.059,0.01-0.088,0.02s-0.039.01-.058,0.01-0.045.01-.067,0.02-0.028.01-.042,0.01v-0.85a6.214,6.214,0,0,1,6.211-6.21h0.626a6.214,6.214,0,0,1,6.211,6.21v0.84c-0.025-.01-0.05-0.01-0.075-0.02s-0.024-.01-0.036-0.01c-1.827-.41-2.425-2.85-2.429-2.87a1.33,1.33,0,0,0-1.016-1,1.314,1.314,0,0,0-1.324.52C325.7,2488.99,320.413,2489.03,320.344,2489.03Zm13.521,5.3v-1.76a1.06,1.06,0,0,1,.457.88A1.088,1.088,0,0,1,333.865,2494.33Zm2.281-39.95a38.852,38.852,0,0,1,6.208,19.81h-14.39a66.111,66.111,0,0,0-2.4-16.77A57.729,57.729,0,0,0,336.146,2454.38Zm-10.8,19.81H311.926a10.693,10.693,0,0,0-7.116-3.5v-11.27a117.589,117.589,0,0,0,18.167-1.53A63.362,63.362,0,0,1,325.343,2474.19Zm-11.56,13.68a1.669,1.669,0,0,1-1.229,1.62v-3.24A1.687,1.687,0,0,1,313.783,2487.87Zm-8.973-51.18c5.216,0.56,10.122,4.43,13.936,11.05a43.79,43.79,0,0,1,3.435,7.63,115.247,115.247,0,0,1-17.371,1.43v-20.11h0Zm-0.831,36.59a8.1,8.1,0,0,1,8.1,8.09v1.6a0.048,0.048,0,0,1-.027-0.02c-0.019-.01-0.038-0.03-0.058-0.04l-0.047-.03c-0.02-.01-0.039-0.03-0.06-0.04l-0.057-.03c-0.018-.01-0.036-0.01-0.055-0.02l-0.071-.03c-0.016-.01-0.032-0.01-0.049-0.02s-0.053-.01-0.08-0.02-0.024-.01-0.037-0.01c-2.489-.57-3.278-3.81-3.284-3.84a1.33,1.33,0,0,0-1.016-1,1.313,1.313,0,0,0-1.324.52c-3.069,4.24-9.849,4.29-9.938,4.29h-0.139c-0.014,0-.027.01-0.041,0.01s-0.06.01-.089,0.01-0.037.01-.055,0.02-0.047.01-.07,0.01l-0.062.03a0.134,0.134,0,0,0-.058.02l-0.07.03a0.091,0.091,0,0,1-.044.02,0.261,0.261,0,0,1-.069.04l-0.039.03c-0.021.01-.041,0.03-0.062,0.04l-0.039.03a0.143,0.143,0,0,0-.035.04v-1.64a8.1,8.1,0,0,1,8.095-8.09h0.784Zm-22.322.91a63.362,63.362,0,0,1,2.367-16.3,117.8,117.8,0,0,0,18.165,1.53v11.28a10.716,10.716,0,0,0-6.947,3.5,0.713,0.713,0,0,0-.146-0.01H281.657Zm13,12.05v3.27A1.684,1.684,0,0,1,294.656,2486.24Zm7.533-49.55v20.11a115.474,115.474,0,0,1-17.369-1.43,43.862,43.862,0,0,1,3.434-7.63C292.068,2441.12,296.974,2437.25,302.189,2436.69Zm-9.419,1.44a30.009,30.009,0,0,0-6.787,8.3,46.925,46.925,0,0,0-3.769,8.47,57.512,57.512,0,0,1-9.806-2.72A39,39,0,0,1,292.77,2438.13Zm-21.9,16.26a58.362,58.362,0,0,0,10.571,3.03,66.111,66.111,0,0,0-2.4,16.77H264.646A38.63,38.63,0,0,1,270.866,2454.39Zm8.444,47.41a7.38,7.38,0,0,0,.819.05h1.2a7.377,7.377,0,0,0,.818-0.05v0.73l-1.46,1.51-1.373-1.33v-0.91Zm2.015-2.57h-1.2a4.2,4.2,0,0,1-4.2-4.2v-3.46a13.651,13.651,0,0,0,7.06-2.73,5.958,5.958,0,0,0,2.534,2.43v3.76A4.2,4.2,0,0,1,281.325,2499.23Zm3.372-13.04a1.33,1.33,0,0,0-1.016-1,1.312,1.312,0,0,0-1.324.52c-2.375,3.28-7.67,3.32-7.734,3.32h0a0.6,0.6,0,0,0-.134.01h-0.041c-0.029.01-.059,0.01-0.089,0.02s-0.036.01-.055,0.01-0.047.01-.07,0.02-0.027.01-.041,0.01v-0.85a6.213,6.213,0,0,1,6.21-6.21h0.627a6.214,6.214,0,0,1,6.211,6.21v0.84h0c-0.025-.01-0.051-0.01-0.076-0.02s-0.023-.01-0.035-0.01C285.3,2488.65,284.7,2486.21,284.7,2486.19Zm-20.052-9.38h14.39q0.024,1.35.1,2.7a8.842,8.842,0,0,0-7.569,8.74v2.32a3.7,3.7,0,0,0,2.077,6.57,6.864,6.864,0,0,0,3.045,3.78v0.74l-1.431.56A38.686,38.686,0,0,1,264.645,2476.81Zm8.663,15.73v1.82A1.079,1.079,0,0,1,273.308,2492.54Zm12.933,17.27v4.57H269.2v-3.39a4.876,4.876,0,0,1,2.968-4.75c0.02-.01.04-0.01,0.06-0.02l4.943-1.94,2.627,2.56a1.3,1.3,0,0,0,.914.37h0.021a1.289,1.289,0,0,0,.922-0.4l2.481-2.57,3.067,1.23A9.765,9.765,0,0,0,286.241,2509.81Zm12.644-11.45-6.956,2.73a8.259,8.259,0,0,0-3.2,2.16l-3.966-1.59v-0.74a6.861,6.861,0,0,0,3.046-3.78,3.7,3.7,0,0,0,2.047-6.56v-2.33a8.842,8.842,0,0,0-8.1-8.8c-0.05-.87-0.085-1.76-0.1-2.64H293.5a10.634,10.634,0,0,0-1.022,4.56v3.06a4.3,4.3,0,0,0,2.516,7.75,8.252,8.252,0,0,0,3.89,4.85v1.33h0Zm-10.74-4.03v-1.77A1.085,1.085,0,0,1,288.145,2494.33Zm17.56,4.95h0v0.08l-2.148,2.23-2.051-2v-1.65a7.546,7.546,0,0,0,1.352.12h1.5a7.546,7.546,0,0,0,1.352-.12v1.34Zm-1.352-3.84h-1.5a5.594,5.594,0,0,1-5.581-5.59v-4.62c2.092-.19,6.228-0.92,9.249-3.63a7.178,7.178,0,0,0,3.407,3.33v4.92A5.593,5.593,0,0,1,304.353,2495.44Zm13.953,7.82a8.416,8.416,0,0,0-3.2-2.17l-6.778-2.72v-1.34a8.252,8.252,0,0,0,3.89-4.85,4.308,4.308,0,0,0,2.48-7.74v-3.07a10.667,10.667,0,0,0-1.022-4.56h11.669c-0.017.89-.052,1.77-0.1,2.65a8.846,8.846,0,0,0-7.953,8.79v2.32a3.7,3.7,0,0,0,2.077,6.57,6.87,6.87,0,0,0,3.046,3.78v0.74Zm0.723-10.72v1.82A1.079,1.079,0,0,1,319.029,2492.54Zm18.8,21.84H320.787v-4.57a9.776,9.776,0,0,0-.955-4.33l3.06-1.2,2.626,2.56a1.3,1.3,0,0,0,.915.37h0.02a1.291,1.291,0,0,0,.923-0.4l2.481-2.57,4.933,1.97c0.023,0.01.035,0.02,0.059,0.03a4.863,4.863,0,0,1,2.979,4.75v3.39h0Z" transform="translate(-262 -2434)"/>
</svg>
