<svg xmlns="http://www.w3.org/2000/svg" width="20" height="20" viewBox="0 0 20 20">
  <metadata><?xpacket begin="﻿" id="W5M0MpCehiHzreSzNTczkc9d"?>
<x:xmpmeta xmlns:x="adobe:ns:meta/" x:xmptk="Adobe XMP Core 5.6-c138 79.159824, 2016/09/14-01:09:01        ">
   <rdf:RDF xmlns:rdf="http://www.w3.org/1999/02/22-rdf-syntax-ns#">
      <rdf:Description rdf:about=""/>
   </rdf:RDF>
</x:xmpmeta>
                                                                                                    
                                                                                                    
                                                                                                    
                                                                                                    
                                                                                                    
                                                                                                    
                                                                                                    
                                                                                                    
                                                                                                    
                                                                                                    
                                                                                                    
                                                                                                    
                                                                                                    
                                                                                                    
                                                                                                    
                                                                                                    
                                                                                                    
                                                                                                    
                                                                                                    
                                                                                                    
                           
<?xpacket end="w"?></metadata>
<defs>
    <style>
      .cls-1 {
        fill: #3f3f3f;
      }

      .cls-1, .cls-2 {
        fill-rule: evenodd;
      }

      .cls-2 {
        fill: #fff;
      }
    </style>
  </defs>
  <path class="cls-1" d="M834,4772a10,10,0,0,0-8.262,15.63l-1.313,3.94,3.94-1.31A10,10,0,1,0,834,4772Z" transform="translate(-824 -4772)"/>
  <path id="Forma_1_copy_4" data-name="Forma 1 copy 4" class="cls-2" d="M839.994,4784.68a0.544,0.544,0,0,1-.163.47l-1.548,1.53a0.782,0.782,0,0,1-.274.2,1.116,1.116,0,0,1-.332.11h-0.07a0.658,0.658,0,0,1-.151.01,5.654,5.654,0,0,1-.716-0.08,5.274,5.274,0,0,1-1.211-.37,10.827,10.827,0,0,1-1.625-.89,12.4,12.4,0,0,1-1.933-1.63,13.068,13.068,0,0,1-1.351-1.54,10.656,10.656,0,0,1-.861-1.36,6.992,6.992,0,0,1-.49-1.13,6.307,6.307,0,0,1-.221-0.87,2.9,2.9,0,0,1-.046-0.58c0.007-.14.011-0.22,0.011-0.23a1.11,1.11,0,0,1,.105-0.33,0.815,0.815,0,0,1,.2-0.28l1.549-1.55a0.5,0.5,0,0,1,.372-0.16,0.425,0.425,0,0,1,.268.09,0.737,0.737,0,0,1,.2.21l1.246,2.37a0.563,0.563,0,0,1,.058.41,0.75,0.75,0,0,1-.2.37l-0.571.57a0.161,0.161,0,0,0-.041.07,0.337,0.337,0,0,0-.017.09,2.046,2.046,0,0,0,.209.56,4.556,4.556,0,0,0,.431.68,7.457,7.457,0,0,0,.827.93,7.543,7.543,0,0,0,.932.83,4.843,4.843,0,0,0,.681.44,2.015,2.015,0,0,0,.419.17l0.146,0.03a0.426,0.426,0,0,0,.075-0.02,0.141,0.141,0,0,0,.076-0.04l0.664-.68a0.725,0.725,0,0,1,.489-0.18,0.574,0.574,0,0,1,.314.07h0.012l2.247,1.33A0.566,0.566,0,0,1,839.994,4784.68Z" transform="translate(-824 -4772)"/>
</svg>
