<svg xmlns="http://www.w3.org/2000/svg" width="24" height="24" viewBox="0 0 24 24">
  <metadata><?xpacket begin="﻿" id="W5M0MpCehiHzreSzNTczkc9d"?>
<x:xmpmeta xmlns:x="adobe:ns:meta/" x:xmptk="Adobe XMP Core 5.6-c138 79.159824, 2016/09/14-01:09:01        ">
   <rdf:RDF xmlns:rdf="http://www.w3.org/1999/02/22-rdf-syntax-ns#">
      <rdf:Description rdf:about=""/>
   </rdf:RDF>
</x:xmpmeta>
                                                                                                    
                                                                                                    
                                                                                                    
                                                                                                    
                                                                                                    
                                                                                                    
                                                                                                    
                                                                                                    
                                                                                                    
                                                                                                    
                                                                                                    
                                                                                                    
                                                                                                    
                                                                                                    
                                                                                                    
                                                                                                    
                                                                                                    
                                                                                                    
                                                                                                    
                                                                                                    
                           
<?xpacket end="w"?></metadata>
<defs>
    <style>
      .cls-1 {
        fill: #fff;
      }

      .cls-1, .cls-2 {
        fill-rule: evenodd;
      }

      .cls-2 {
        fill: red;
      }
    </style>
  </defs>
  <path class="cls-1" d="M433,20a12,12,0,0,0-9.914,18.762L421.51,43.49l4.728-1.576A12,12,0,1,0,433,20Z" transform="translate(-421 -20)"/>
  <path id="Forma_1_copy_3" data-name="Forma 1 copy 3" class="cls-2" d="M439.993,35.047a0.677,0.677,0,0,1-.208.592L437.814,37.6a1.1,1.1,0,0,1-.348.252,1.453,1.453,0,0,1-.423.134l-0.089.007C436.905,38,436.841,38,436.762,38a6.532,6.532,0,0,1-2.453-.571,12.9,12.9,0,0,1-2.068-1.135,15.464,15.464,0,0,1-2.46-2.076,16.174,16.174,0,0,1-1.719-1.958,13.938,13.938,0,0,1-1.1-1.728,9.357,9.357,0,0,1-.622-1.438,7.645,7.645,0,0,1-.282-1.112A3.7,3.7,0,0,1,426,27.246c0.01-.178.015-0.277,0.015-0.3a1.432,1.432,0,0,1,.133-0.423,1.113,1.113,0,0,1,.252-0.348l1.971-1.972A0.654,0.654,0,0,1,428.847,24a0.553,0.553,0,0,1,.341.111,1.015,1.015,0,0,1,.252.275l1.586,3.01a0.721,0.721,0,0,1,.074.52,0.917,0.917,0,0,1-.252.474l-0.726.727a0.238,0.238,0,0,0-.052.1,0.359,0.359,0,0,0-.022.111,2.636,2.636,0,0,0,.267.712,6.444,6.444,0,0,0,.548.867,9.666,9.666,0,0,0,1.052,1.179,9.766,9.766,0,0,0,1.186,1.06,6.8,6.8,0,0,0,.867.556,2.277,2.277,0,0,0,.534.215l0.185,0.037a0.335,0.335,0,0,0,.1-0.022,0.241,0.241,0,0,0,.1-0.052l0.845-.86a0.908,0.908,0,0,1,.623-0.238,0.775,0.775,0,0,1,.4.089h0.015l2.86,1.691A0.745,0.745,0,0,1,439.993,35.047Z" transform="translate(-421 -20)"/>
</svg>
