<svg xmlns="http://www.w3.org/2000/svg" width="31.72" height="31.66" viewBox="0 0 31.72 31.66">
  <metadata><?xpacket begin="﻿" id="W5M0MpCehiHzreSzNTczkc9d"?>
<x:xmpmeta xmlns:x="adobe:ns:meta/" x:xmptk="Adobe XMP Core 5.6-c138 79.159824, 2016/09/14-01:09:01        ">
   <rdf:RDF xmlns:rdf="http://www.w3.org/1999/02/22-rdf-syntax-ns#">
      <rdf:Description rdf:about=""/>
   </rdf:RDF>
</x:xmpmeta>
                                                                                                    
                                                                                                    
                                                                                                    
                                                                                                    
                                                                                                    
                                                                                                    
                                                                                                    
                                                                                                    
                                                                                                    
                                                                                                    
                                                                                                    
                                                                                                    
                                                                                                    
                                                                                                    
                                                                                                    
                                                                                                    
                                                                                                    
                                                                                                    
                                                                                                    
                                                                                                    
                           
<?xpacket end="w"?></metadata>
<defs>
    <style>
      .cls-1 {
        fill: #423f3f;
        stroke: #434343;
      }

      .cls-1, .cls-2 {
        stroke-width: 1px;
      }

      .cls-2 {
        fill: #fff;
        stroke: #fffffb;
        fill-rule: evenodd;
      }
    </style>
  </defs>
  <circle id="Ellipse_552_copy" data-name="Ellipse 552 copy" class="cls-1" cx="15.86" cy="15.83" r="15.36"/>
  <path class="cls-2" d="M1120.63,4791.67h0c-2.28,0-4.76-.07-7.37-0.2a3.026,3.026,0,0,1-2.92-2.7,34.125,34.125,0,0,1,0-7.56,3.041,3.041,0,0,1,2.91-2.7,122.167,122.167,0,0,1,13.8,0,3.025,3.025,0,0,1,2.92,2.69,34.2,34.2,0,0,1,0,7.57,3.025,3.025,0,0,1-2.91,2.7C1125.08,4791.6,1122.91,4791.67,1120.63,4791.67Zm-0.53-12.64c-2.27,0-4.56.07-6.8,0.2a2.266,2.266,0,0,0-2.19,2.05,32.876,32.876,0,0,0,0,7.42,2.25,2.25,0,0,0,2.19,2.05c2.6,0.13,5.07.2,7.33,0.2s4.41-.07,6.37-0.2a2.284,2.284,0,0,0,2.2-2.05,32.863,32.863,0,0,0,0-7.42,2.273,2.273,0,0,0-2.19-2.05C1124.7,4779.1,1122.37,4779.03,1120.1,4779.03Zm-1.91,3.42v4.92l5.08-2.44Z" transform="translate(-1104.31 -4769.84)"/>
</svg>
