<svg xmlns="http://www.w3.org/2000/svg" width="25.28" height="24.906" viewBox="0 0 25.28 24.906">
  <metadata><?xpacket begin="﻿" id="W5M0MpCehiHzreSzNTczkc9d"?>
<x:xmpmeta xmlns:x="adobe:ns:meta/" x:xmptk="Adobe XMP Core 5.6-c138 79.159824, 2016/09/14-01:09:01        ">
   <rdf:RDF xmlns:rdf="http://www.w3.org/1999/02/22-rdf-syntax-ns#">
      <rdf:Description rdf:about=""/>
   </rdf:RDF>
</x:xmpmeta>
                                                                                                    
                                                                                                    
                                                                                                    
                                                                                                    
                                                                                                    
                                                                                                    
                                                                                                    
                                                                                                    
                                                                                                    
                                                                                                    
                                                                                                    
                                                                                                    
                                                                                                    
                                                                                                    
                                                                                                    
                                                                                                    
                                                                                                    
                                                                                                    
                                                                                                    
                                                                                                    
                           
<?xpacket end="w"?></metadata>
<defs>
    <style>
      .cls-1 {
        fill: #fffffb;
      }

      .cls-2 {
        fill: red;
        fill-rule: evenodd;
      }
    </style>
  </defs>
  <circle id="Ellipse_552_copy" data-name="Ellipse 552 copy" class="cls-1" cx="12.64" cy="12.453" r="12.64"/>
  <path id="Forma_1" data-name="Forma 1" class="cls-2" d="M1299.81,25h-10.62a3.226,3.226,0,0,0-3.19,3.25v6.5a3.226,3.226,0,0,0,3.19,3.25h10.62a3.226,3.226,0,0,0,3.19-3.25v-6.5A3.226,3.226,0,0,0,1299.81,25Zm2.13,9.75a2.148,2.148,0,0,1-.63,1.529,2.075,2.075,0,0,1-1.5.637h-10.62a2.075,2.075,0,0,1-1.5-.637,2.148,2.148,0,0,1-.63-1.529v-6.5a2.148,2.148,0,0,1,.63-1.529,2.075,2.075,0,0,1,1.5-.637h10.62a2.075,2.075,0,0,1,1.5.637,2.148,2.148,0,0,1,.63,1.529v6.5Zm-9.57,1.083,5.32-4.333-5.32-4.333v8.667Z" transform="translate(-1281.56 -19.094)"/>
</svg>
