<svg xmlns="http://www.w3.org/2000/svg" width="23" height="23" viewBox="0 0 23 23">
  <metadata><?xpacket begin="﻿" id="W5M0MpCehiHzreSzNTczkc9d"?>
<x:xmpmeta xmlns:x="adobe:ns:meta/" x:xmptk="Adobe XMP Core 5.6-c138 79.159824, 2016/09/14-01:09:01        ">
   <rdf:RDF xmlns:rdf="http://www.w3.org/1999/02/22-rdf-syntax-ns#">
      <rdf:Description rdf:about=""/>
   </rdf:RDF>
</x:xmpmeta>
                                                                                                    
                                                                                                    
                                                                                                    
                                                                                                    
                                                                                                    
                                                                                                    
                                                                                                    
                                                                                                    
                                                                                                    
                                                                                                    
                                                                                                    
                                                                                                    
                                                                                                    
                                                                                                    
                                                                                                    
                                                                                                    
                                                                                                    
                                                                                                    
                                                                                                    
                                                                                                    
                           
<?xpacket end="w"?></metadata>
<defs>
    <style>
      .cls-1 {
        fill: #373737;
        fill-rule: evenodd;
      }
    </style>
  </defs>
  <path id="Forma_1" data-name="Forma 1" class="cls-1" d="M1272.9,127.4a2.3,2.3,0,1,0,2.3,2.3A2.3,2.3,0,0,0,1272.9,127.4ZM1266,109v2.3h2.3l4.14,8.741-1.61,2.76a3.911,3.911,0,0,0-.23,1.149,2.3,2.3,0,0,0,2.3,2.3h13.8v-2.3h-13.34a0.243,0.243,0,0,1-.23-0.229V123.6l1.03-1.955h8.51a2.11,2.11,0,0,0,1.96-1.15l4.14-7.474a0.634,0.634,0,0,0,.23-0.575,1.087,1.087,0,0,0-1.15-1.151h-17.02l-1.04-2.3H1266Zm18.4,18.4a2.3,2.3,0,1,0,2.3,2.3A2.3,2.3,0,0,0,1284.4,127.4Z" transform="translate(-1266 -109)"/>
</svg>
